<?xml version="1.0" encoding="UTF-8"?>
<svg version="1.1" xmlns="http://www.w3.org/2000/svg" width="127" height="127" viewBox="0 0 127 127">
<path d="M0 0 C0.70979004 -0.00671722 1.41958008 -0.01343445 2.15087891 -0.02035522 C4.48233158 -0.03925302 6.81349517 -0.0432551 9.14501953 -0.04541016 C10.77637853 -0.05184346 12.40773639 -0.05857221 14.03909302 -0.06558228 C17.45349806 -0.07753423 20.86780209 -0.08126522 24.28222656 -0.08007812 C28.64223597 -0.07987497 33.0015933 -0.10718196 37.36144829 -0.14162254 C40.72965429 -0.16393597 44.09770439 -0.16791432 47.46597672 -0.16685867 C49.07263563 -0.16920776 50.6792993 -0.17799204 52.28588486 -0.19352341 C69.28393642 -0.34247717 69.28393642 -0.34247717 76.67626953 6.03662109 C77.34529297 6.87386719 77.34529297 6.87386719 78.02783203 7.72802734 C78.72005859 8.56140625 78.72005859 8.56140625 79.42626953 9.41162109 C82.46838164 14.0716718 82.91094083 18.10003988 82.94335938 23.6159668 C82.9500766 24.33536438 82.95679382 25.05476196 82.9637146 25.79595947 C82.98265314 28.16531353 82.98661682 30.53438363 82.98876953 32.90380859 C82.99520093 34.55901707 83.00192955 36.21422442 83.00894165 37.86943054 C83.02090447 41.33688999 83.02462356 44.80424989 83.0234375 48.27172852 C83.0232345 52.70014412 83.05052095 57.12791661 83.08498192 61.55618 C83.10729578 64.97499992 83.11127366 68.39366624 83.11021805 71.8125515 C83.11256786 73.44432984 83.12135628 75.07611282 83.13688278 76.70781898 C83.28439421 93.81301774 83.28439421 93.81301774 76.94189453 101.31396484 C76.39275391 101.75998047 75.84361328 102.20599609 75.27783203 102.66552734 C74.73384766 103.12701172 74.18986328 103.58849609 73.62939453 104.06396484 C68.78897798 107.06770159 64.02791989 107.54939584 58.42919922 107.59692383 C57.73237534 107.60524734 57.03555145 107.61357086 56.31761169 107.62214661 C54.0282522 107.64611698 51.73917847 107.65500345 49.44970703 107.66162109 C47.84555991 107.67059862 46.24141359 107.67972065 44.63726807 107.6889801 C41.27834038 107.70543841 37.91951198 107.7131642 34.56054688 107.71606445 C30.27906882 107.72143924 25.99853826 107.75909456 21.71732712 107.80480862 C18.40393765 107.83471303 15.09077245 107.84179092 11.77725983 107.8427906 C10.20014363 107.84696788 8.62302521 107.8593009 7.0460434 107.88030815 C-1.97315101 107.99087641 -9.7061914 107.75185589 -17.34716797 102.29052734 C-19.60107422 99.97412109 -19.60107422 99.97412109 -20.90966797 97.72802734 C-21.36470703 96.98423828 -21.81974609 96.24044922 -22.28857422 95.47412109 C-24.38520463 91.14933733 -24.48563008 87.26266951 -24.52416992 82.47753906 C-24.53074112 81.80051437 -24.53731232 81.12348969 -24.54408264 80.4259491 C-24.5637515 78.19070305 -24.57546644 75.95552414 -24.58544922 73.72021484 C-24.58952475 72.95305271 -24.59360027 72.18589058 -24.5977993 71.39548111 C-24.61863694 67.33152794 -24.63294624 63.26760826 -24.64233398 59.20361328 C-24.65336848 55.0276147 -24.68774018 50.85215335 -24.72750568 46.67634392 C-24.75378751 43.44704267 -24.7620362 40.21786694 -24.76561546 36.98846817 C-24.77045491 35.45043451 -24.78199262 33.91240545 -24.80065346 32.37447739 C-25.0151263 13.52065045 -25.0151263 13.52065045 -18.62617493 6.36227417 C-13.16715667 1.1747539 -7.42608695 0.04432803 0 0 Z " fill="#000000" transform="translate(34.34716796875,9.70947265625)"/>
<path d="M0 0 C3.96 0 7.92 0 12 0 C12.33 5.94 12.66 11.88 13 18 C14.98 17.01 16.96 16.02 19 15 C25.47394914 14.04185553 31.61555394 14.37306498 37.3203125 17.734375 C41.92945562 21.20731075 44.75217785 25.72140641 47 31 C47.86988825 38.1942109 48.23641862 45.99060091 44.33984375 52.35546875 C39.44221259 58.36684694 33.96772146 62.14195873 26.15625 62.97265625 C21.15390788 63.03609175 16.31370046 61.51632527 12 59 C12 59.66 12 60.32 12 61 C8.04 61 4.08 61 0 61 C0 40.87 0 20.74 0 0 Z " fill="#38AC5C" transform="translate(30,33)"/>
<path d="M0 0 C3.64950902 1.65886774 6.08559854 3.4583573 8 7 C9.0229061 11.53001273 9.39281621 13.8651976 7.875 18.25 C5.37993388 21.90943031 3.41383406 24.52258735 -1.11328125 25.41796875 C-5.3868253 25.68371855 -7.64695581 25.19898854 -11.4375 23.0625 C-14.67938736 19.18804925 -15.87026392 16.04240911 -16 11 C-14.84272714 6.58789722 -13.65745966 4.58274833 -10.25 1.5625 C-6.43456971 -0.27184149 -4.18654012 -0.53283238 0 0 Z " fill="#000000" transform="translate(57,59)"/>
<path d="M0 0 C1.65 0 3.3 0 5 0 C5 23.43 5 46.86 5 71 C3.35 71 1.7 71 0 71 C0 47.57 0 24.14 0 0 Z " fill="#48AB61" transform="translate(91,28)"/>
</svg>
