<?xml version="1.0" encoding="UTF-8"?>
<svg version="1.1" xmlns="http://www.w3.org/2000/svg" width="127" height="127" viewBox="0 0 127 127">
<path d="M0 0 C1.10813805 -0.01007584 1.10813805 -0.01007584 2.23866272 -0.02035522 C4.67838289 -0.0393351 7.1178278 -0.04325979 9.55761719 -0.04541016 C11.25909538 -0.05183956 12.96057246 -0.05856803 14.66204834 -0.06558228 C18.22964031 -0.07755605 21.79713545 -0.08126315 25.36474609 -0.08007812 C29.92209866 -0.07987526 34.47882533 -0.10714249 39.03602982 -0.14162254 C42.55178643 -0.16393476 46.06739366 -0.1679143 49.58321381 -0.16685867 C51.26243999 -0.16920947 52.94167061 -0.17800351 54.62082672 -0.19352341 C70.91960713 -0.3300265 70.91960713 -0.3300265 77.60449219 4.29052734 C79.66308594 6.32568359 79.66308594 6.32568359 81.04199219 8.35302734 C81.51507813 9.02462891 81.98816406 9.69623047 82.47558594 10.38818359 C84.85702324 14.40119387 84.74736943 17.90725098 84.78149414 22.48071289 C84.78806534 23.20957199 84.79463654 23.93843109 84.80140686 24.68937683 C84.82111909 27.10200101 84.83279945 29.51456292 84.84277344 31.92724609 C84.84684896 32.75298441 84.85092449 33.57872272 84.85512352 34.42948341 C84.87597809 38.80235162 84.89028094 43.17518853 84.8996582 47.5480957 C84.91070525 52.05275568 84.94508688 56.55691931 84.9848299 61.06140423 C85.01104805 64.53510928 85.01935476 68.00869716 85.02293968 71.48249245 C85.02779433 73.14219314 85.03937623 74.80188899 85.05797768 76.46149254 C85.22741305 92.58396084 85.22741305 92.58396084 80.60449219 99.29052734 C78.56933594 101.34912109 78.56933594 101.34912109 76.54199219 102.72802734 C75.87039062 103.20111328 75.19878906 103.67419922 74.50683594 104.16162109 C70.52920049 106.52206595 66.78127862 106.45029718 62.30664062 106.4675293 C61.56642166 106.47410049 60.8262027 106.48067169 60.06355286 106.48744202 C57.61365657 106.50715312 55.16382155 106.51883339 52.71386719 106.52880859 C51.87584816 106.53288412 51.03782913 106.53695965 50.17441559 106.54115868 C45.73786161 106.56201121 41.30133847 106.57631582 36.86474609 106.58569336 C32.29048927 106.59674939 27.71672001 106.63114208 23.14263535 106.67086506 C19.61835854 106.69705637 16.09419741 106.70538747 12.56983185 106.70897484 C10.8841854 106.71383518 9.19854392 106.72543346 7.51299286 106.74401283 C5.1482471 106.76845625 2.78475624 106.76743024 0.41992188 106.76049805 C-0.27020493 106.77330811 -0.96033173 106.78611816 -1.67137146 106.79931641 C-7.75425262 106.7346503 -11.7740168 104.57170309 -16.32128906 100.61474609 C-17.00771484 99.80457031 -17.00771484 99.80457031 -17.70800781 98.97802734 C-18.41376953 98.17945312 -18.41376953 98.17945312 -19.13378906 97.36474609 C-22.17692466 92.36194423 -22.64815707 86.94921668 -22.67016602 81.21289062 C-22.67527695 80.54357513 -22.68038788 79.87425964 -22.68565369 79.18466187 C-22.69944358 76.99329441 -22.69860089 74.80224527 -22.69628906 72.61083984 C-22.70018207 71.07298671 -22.70451798 69.53513464 -22.70927429 67.99728394 C-22.7167139 64.78135689 -22.71646188 61.56553967 -22.71118164 58.34960938 C-22.70539265 54.24877204 -22.72231493 50.1483872 -22.74552631 46.04762459 C-22.76033042 42.87325455 -22.76112628 39.6989918 -22.75801659 36.52459335 C-22.75852654 35.01367167 -22.76370236 33.50274346 -22.77382851 31.99185562 C-22.88209549 13.57895859 -22.88209549 13.57895859 -17.49316406 6.95068359 C-16.8215625 6.42345703 -16.14996094 5.89623047 -15.45800781 5.35302734 C-14.45447266 4.53511719 -14.45447266 4.53511719 -13.43066406 3.70068359 C-8.92771037 0.58059476 -5.4456917 -0.00712181 0 0 Z " fill="#FEFEFE" transform="translate(32.3955078125,9.70947265625)"/>
<path d="M0 0 C3.96 0 7.92 0 12 0 C12.33 5.94 12.66 11.88 13 18 C15.31 17.01 17.62 16.02 20 15 C27.6850978 13.83351194 33.07133572 15.66150935 39.625 19.5625 C44.73013898 24.80198474 47.29504285 30.68437855 47.625 38 C47.30878353 44.82500547 45.09162916 50.46670953 40.578125 55.625 C35.64458423 60.08110134 29.81303408 62.5937678 23.1328125 62.37109375 C19.12714138 61.67413632 15.58551177 59.85915425 12 58 C12 58.99 12 59.98 12 61 C8.04 61 4.08 61 0 61 C0 40.87 0 20.74 0 0 Z " fill="#39B25E" transform="translate(30,33)"/>
<path d="M0 0 C3.07612604 1.70370057 5.24865543 4.00959125 7.375 6.8125 C8.6823908 11.38836778 8.67633152 15.43375858 6.8125 19.75 C2.11845326 25.57709251 2.11845326 25.57709251 -2.11328125 26.421875 C-6.30020376 26.6752014 -9.12378295 26.36771232 -12.4375 23.6875 C-15.62688233 20.34253804 -17.29544682 18.29362913 -17.375 13.6875 C-17.26288832 9.09092123 -16.0880045 6.5053024 -13 3 C-9.10012201 -0.24989833 -4.94658708 -1.04546263 0 0 Z " fill="#FBFDFB" transform="translate(58,58)"/>
<path d="M0 0 C1.65 0 3.3 0 5 0 C5 23.43 5 46.86 5 71 C3.35 71 1.7 71 0 71 C0 47.57 0 24.14 0 0 Z " fill="#51B86A" transform="translate(91,28)"/>
</svg>
